-
http:// www. Speed. Cd       
http:// www. Speed. Cd       the fast  and The Hottest Private Tracker on the net

Please Seed back to make the speed Faster!!!

and don't forget to visit      ...... www. Speed. Cd..........
-                                             
                               
                                 
                                      
                                      
                                       
    CoaX!<CPH>                         
                               
                         
                            
          
    Team FiCO <Final Coalition> 2k8 Presents:    
    

Princess.Iron.Fan.1941.PROPER.DVDRip.XviD-FiCO
 
http://www.imdb.com/title/tt0471945/
Subtitles: EN ESP ITA RUS CZE
Date: 2011.03

Director: Wan Guchan, Wan Laiming
Genre: Animation 
Plot: Based on the 16th-century tale Journey to the West, this allegorical film 
made in 1941 was China's first full-length animated feature. It follows the 
adventures of Monkey King, a Tang Dynasty monk, as he travels westward. Monkey 
King and his friends try to save a burning village, but to do so they must 
obtain an iron fan owned by the obstinate Princess Iron Fan. The story spoke 
to Chinese resistors, prompting them to unite against the Japanese.

Cast
Credited cast:
Wan Guchan 	Wan Guchan 	... 	
(voice)
Chizuko Kanda 	Chizuko Kanda 	... 	
(Japanese version) (voice)
Wan Laiming 	Wan Laiming 	... 	
(voice)
Shuichi Makino 	Shuichi Makino 	... 	
(Japanese version) (voice)
Musei Tokugawa 	Musei Tokugawa 	... 	
(Japanese version) (voice)
Chaochen Wan 	Chaochen Wan 	... 	
(voice)
Dihuan Wan 	Dihuan Wan 	... 	
(voice)
Ichiro Yamano 	Ichiro Yamano 	... 	
(Japanese version) (voice)
Full cast and crew  

Stats:
General
Format                           : AVI
Format/Info                      : Audio Video Interleave
File size                        : 697 MiB
Duration                         : 1h 12mn
Overall bit rate                 : 1 338 Kbps
Writing application              : Nandub v1.0rc2
Writing library                  : Nandub build 1853/release

Video
ID                               : 0
Format                           : MPEG-4 Visual
Format profile                   : Advanced Simple@L5
Format settings, BVOP            : Yes
Format settings, QPel            : No
Format settings, GMC             : No warppoints
Format settings, Matrix          : Default (H.263)
Codec ID                         : XVID
Codec ID/Hint                    : XviD
Duration                         : 1h 12mn
Bit rate                         : 1 231 Kbps
Width                            : 640 pixels
Height                           : 416 pixels
Display aspect ratio             : 3:2
Frame rate                       : 25.000 fps
Resolution                       : 8 bits
Colorimetry                      : 4:2:0
Scan type                        : Progressive
Bits/(Pixel*Frame)               : 0.185
Stream size                      : 641 MiB (92%)
Writing library                  : XviD 61

Audio
ID                               : 1
Format                           : MPEG Audio
Format version                   : Version 1
Format profile                   : Layer 3
Codec ID                         : 55
Codec ID/Hint                    : MP3
Duration                         : 1h 12mn
Bit rate mode                    : Variable
Bit rate                         : 94.3 Kbps
Minimum bit rate                 : 32.0 Kbps
Channel(s)                       : 1 channel
Sampling rate                    : 48.0 KHz
Stream size                      : 49.1 MiB (7%)
Alignment                        : Aligned on interleaves
Interleave, duration             : 24 ms (0.60 video frame)
Interleave, preload duration     : 193 ms
Writing library                  : LAME3.95 
Encoding settings                : -m m -V 4 -q 3 -lowpass 18 --vbr-old -b 32




Release notes:
enjoy! iMOVANE did not restore to 25 FPS and has tons of ghosting.


                                                                     
                                                             
                                                               
                                                               
                       
      
              Greetz from Team FiCO:               
              
                                                             
                                                             
           BLooDWeiSeR,CULTXviD,SiCK,DoNE,LAP,TH30R1STS              
                                                                             
               WinBeta, DvF, WASTE, BERC, KALEVALA, Jiggly                   
                                                                             
                                                             
                                       
                             
                      
                  
           
            
                    
                  
                
                            
                                        
                                        
                                            
                                                    
                                                              
                      you know where to find us...                     
                        
   NFO By: CoaXCable/CoolPHat <#CPH>